<svg id="图层_1" data-name="图层 1" xmlns="http://www.w3.org/2000/svg" viewBox="0 0 687.88 295.66"><defs><style>.cls-1{fill:#fff;}</style></defs><title>160908logo</title><path class="cls-1" d="M320.15,684.63a142.51,142.51,0,1,0-52.94.25v-152h52.94m-132.56,12a105.11,105.11,0,0,1,11.86-48.66v36.67h30.37v96.45A105.4,105.4,0,0,1,187.58,544.86Zm12.25-49.4a105.6,105.6,0,0,1,186.63,0M357.82,628.3V532.87h29V496.15A105.61,105.61,0,0,1,357.82,628.3Z" transform="translate(-150.5 -402.21)"/><path class="cls-1" d="M566.13,606.66h56.75v8.57q0,16.18-18.28,16.19H499.48q-11.62-1-16.38-9.9-4,9.14-15.23,9.52l-13.52-.19V485.92q0-4.57-4.57-4.57h-6.67V456.6h22.09q18.09,0.19,18.09,21.71v46.08q0,9-17.52,13.71Q483.3,540.58,483.3,549v43.8q1.9,9.9,12,13.9h40.18q0-10.47-12.76-10.47H494V575.81h41.51v-3q0-6.66-12.76-6.67h-25.9V547.24h38.66V544q0-6.47-12.76-6.47h-25.9V518.68h38.66v-3.62q0-6.86-14.66-6.86h-29.9V487.83h44.56v-3.62q0-6.86-13.9-6.86H496.82V458.5h38.66v-6.86h30.66v6.86H592q22.28,0,22.09,21.9v7.43h8.76V508.2h-8.76v11.24l0.38,18.09H566.13v9.71h48.56V566.1H566.13v9.71h51.61v20.38H566.13v10.47Zm11.81-129.3H566.13v10.47h20.19v-3.62Q586.32,477.36,577.94,477.36ZM576,508.2h-9.9v10.47h20.19v-2.86Q586.32,508.21,576,508.2Z" transform="translate(-150.5 -402.21)"/><path class="cls-1" d="M706,605.9h131.4v10.66q0,15.23-17.71,14.85H714.37a22.6,22.6,0,0,1-16.57-11.24q0,11.23-15.23,11.24H667.71V521.15H657.62V496.21h21.71q18.28,0,18.47,20.38v78.65Q698.75,603.61,706,605.9ZM667.9,481a16.65,16.65,0,0,0,12.19,5.14,16.44,16.44,0,0,0,12-5.14,16.65,16.65,0,0,0,5.14-12.19,17.57,17.57,0,0,0-17.14-17.14,16.65,16.65,0,0,0-12.19,5.14,16.44,16.44,0,0,0-5.14,12A16.65,16.65,0,0,0,667.9,481Zm116,99.21q0.19,18.09-15.42,18.09l-15.62-.19v-36q0-13.33-17.14-13.33h-32V525.15h49.13v-2.48q0-9.9-17.9-9.9H709.6V502.68H698.75l18.47-43.42q4-7,15.23-7h72.17q11.81-.19,14.66,9.52l17.33,40.94h-8.19v10.09H783.87v12.38H835.1v23.61H783.87v31.42ZM742.74,557l-7.24,40.18H706.37l8-40.18h28.37Zm0.57-79.6-5.14,12a0.55,0.55,0,0,0-.19.38h60l-5.52-12.38H743.31ZM823.67,564l9.9,33.13h-28L792.25,557h20.57Q820.24,557,823.67,564Z" transform="translate(-150.5 -402.21)"/><path class="cls-1" d="M455.17,658.2h4.4l5.64,21.69,5.67-21.69h2.64l6,21.61L485,658.2h4.4l-8.41,27.95h-2.87l-5.85-22-5.62,22h-2.87Z" transform="translate(-150.5 -402.21)"/><path class="cls-1" d="M493.35,658.2h4.4l5.64,21.69,5.67-21.69h2.64l6,21.61,5.41-21.61h4.4l-8.41,27.95h-2.87l-5.85-22-5.62,22h-2.87Z" transform="translate(-150.5 -402.21)"/><path class="cls-1" d="M531.54,658.2h4.4l5.64,21.69,5.67-21.69h2.64l6,21.61,5.41-21.61h4.4l-8.41,27.95h-2.87l-5.85-22-5.62,22H540.1Z" transform="translate(-150.5 -402.21)"/><path class="cls-1" d="M571.55,683.71a3.16,3.16,0,0,1,.85-2.13,2.85,2.85,0,0,1,2.25-1,2.88,2.88,0,0,1,2.24,1,3.1,3.1,0,0,1,0,4.29,2.88,2.88,0,0,1-2.24,1,2.93,2.93,0,0,1-2.22-.93A3.07,3.07,0,0,1,571.55,683.71Z" transform="translate(-150.5 -402.21)"/><path class="cls-1" d="M590.56,689.33a8.15,8.15,0,0,1-2.41,6.35,9.22,9.22,0,0,1-6.44,2.19l-1,0-0.76-.05,0.34-3.62a3.24,3.24,0,0,0,.56.06h0.58a5.65,5.65,0,0,0,3.51-1.22q1.59-1.22,1.59-4.4V658.2h4.09v31.13Zm-4.45-40.16a2.6,2.6,0,0,1,.67-1.72,2.23,2.23,0,0,1,1.79-.79,2.17,2.17,0,0,1,1.75.79,2.63,2.63,0,0,1,.66,1.72,2.4,2.4,0,0,1-.72,1.76,2.31,2.31,0,0,1-1.68.72A2.5,2.5,0,0,1,586.11,649.17Z" transform="translate(-150.5 -402.21)"/><path class="cls-1" d="M598.2,658.2h4v-7.06h4.09v7.06h6.81l-0.44,3.55h-6.37v16.15a8.07,8.07,0,0,0,.79,3.86,2.62,2.62,0,0,0,2.47,1.45,12.17,12.17,0,0,0,2.28-.27q1.37-.27,1.81-0.4l0.31,3.54q-0.52.1-2.19,0.32a21.36,21.36,0,0,1-2.63.22,7.41,7.41,0,0,1-5.11-1.63q-1.83-1.63-1.83-6V661.74h-4V658.2Z" transform="translate(-150.5 -402.21)"/><path class="cls-1" d="M628.6,662.29h0.67a17.54,17.54,0,0,0,4.39-.5,9.6,9.6,0,0,0,3.33-1.51,6.76,6.76,0,0,0,2.11-2.54,8.07,8.07,0,0,0,.74-3.55,6.1,6.1,0,0,0-.49-2.47,5.14,5.14,0,0,0-1.49-1.94,7,7,0,0,0-2.48-1.25,12.24,12.24,0,0,0-3.46-.44,10.09,10.09,0,0,0-2.3.27,16.3,16.3,0,0,0-2.2.67,13.08,13.08,0,0,0-1.88.89,8.3,8.3,0,0,0-1.33.93l-2.1-3q0.75-.52,1.79-1.1a16.54,16.54,0,0,1,2.32-1.06,20,20,0,0,1,2.78-.8,15.24,15.24,0,0,1,3.21-.32,18.71,18.71,0,0,1,4.61.56,12,12,0,0,1,3.88,1.71,8.61,8.61,0,0,1,2.68,2.92,8.45,8.45,0,0,1,1,4.21,9.25,9.25,0,0,1-.67,3.64,9,9,0,0,1-1.77,2.74,9.93,9.93,0,0,1-2.5,1.9,12.31,12.31,0,0,1-2.85,1.11,16.26,16.26,0,0,1,3.87,1,9.55,9.55,0,0,1,3.08,2,8.85,8.85,0,0,1,2,3.21,13,13,0,0,1,.72,4.61,13.23,13.23,0,0,1-1.12,5.69,10.22,10.22,0,0,1-3.18,3.91,13.83,13.83,0,0,1-4.94,2.25,26.3,26.3,0,0,1-6.41.72,18.09,18.09,0,0,1-2.6-.19,20.31,20.31,0,0,1-2.58-.54,16,16,0,0,1-2.34-.85,9.72,9.72,0,0,1-1.9-1.13l2-3.52a17.89,17.89,0,0,0,3.83,2,11,11,0,0,0,3.83.67q5.46,0,8.13-2.2t2.67-6.83a10.25,10.25,0,0,0-.71-4,6.67,6.67,0,0,0-2.1-2.73,9,9,0,0,0-3.39-1.55,19.4,19.4,0,0,0-4.59-.49H628.6v-3.13Z" transform="translate(-150.5 -402.21)"/><path class="cls-1" d="M665.49,682.6V650.12l-7.63,4,0-4.22,8.38-4.32h3.62v37h6.81v3.54H658.14V682.6h7.35Z" transform="translate(-150.5 -402.21)"/><path class="cls-1" d="M705.56,674.81h-17.8l0-2.59,18.43-26.63h3.78v25.46H714l0,3.75H710l0,11.33h-4.37V674.81Zm-13.33-3.73h13.33v-19.2Z" transform="translate(-150.5 -402.21)"/><path class="cls-1" d="M721.27,683.71a3.16,3.16,0,0,1,.85-2.13,2.85,2.85,0,0,1,2.25-1,2.88,2.88,0,0,1,2.24,1,3.1,3.1,0,0,1,0,4.29,2.88,2.88,0,0,1-2.24,1,2.93,2.93,0,0,1-2.22-.93A3.07,3.07,0,0,1,721.27,683.71Z" transform="translate(-150.5 -402.21)"/><path class="cls-1" d="M758.11,681.54A11.16,11.16,0,0,1,754,685.2a13.38,13.38,0,0,1-6.3,1.36,11.47,11.47,0,0,1-9.23-4A15.6,15.6,0,0,1,735,672.07a15.25,15.25,0,0,1,3.46-10.26,11.6,11.6,0,0,1,9.3-4.05,14,14,0,0,1,5.63,1,11,11,0,0,1,3.82,2.74l-2.67,2.41a10,10,0,0,0-3.08-2.41,8.56,8.56,0,0,0-3.65-.72,7.33,7.33,0,0,0-6.26,3.07,12.89,12.89,0,0,0-2.25,7.83,14.4,14.4,0,0,0,2.39,8.38,7.16,7.16,0,0,0,6.09,3.47,8.79,8.79,0,0,0,4.7-1,11.61,11.61,0,0,0,3-2.94Z" transform="translate(-150.5 -402.21)"/><path class="cls-1" d="M779.21,686.61q-6.57,0-9.94-4.06t-3.36-10.77a14.44,14.44,0,0,1,3.6-10,12.23,12.23,0,0,1,9.57-4q6.11,0,9.43,4.17a16.11,16.11,0,0,1,3.33,10.38,15.31,15.31,0,0,1-3.49,10.11A11.31,11.31,0,0,1,779.21,686.61ZM779,683.33a6.9,6.9,0,0,0,3.75-1,10.83,10.83,0,0,0,3.2-3.65,13.85,13.85,0,0,0,1.59-7.17,12.62,12.62,0,0,0-2.19-7.21A7.23,7.23,0,0,0,779,661a7.61,7.61,0,0,0-6.51,3.11,13.36,13.36,0,0,0-2.29,8.13,11.64,11.64,0,0,0,1.64,6.68,11.33,11.33,0,0,0,3.31,3.38A7.45,7.45,0,0,0,779,683.33Z" transform="translate(-150.5 -402.21)"/><path class="cls-1" d="M805.31,658.2a21.93,21.93,0,0,1,.31,2.69,22.87,22.87,0,0,1,4.08-2.21,12.77,12.77,0,0,1,5-.92,8.66,8.66,0,0,1,3.35.67,6.65,6.65,0,0,1,2.86,2.46,18.85,18.85,0,0,1,9.78-3.13,8.28,8.28,0,0,1,3.43.66,6.55,6.55,0,0,1,2.41,1.81,7.7,7.7,0,0,1,1.41,2.72,11.7,11.7,0,0,1,.47,3.35v19.85h-4.09V666.69a7.34,7.34,0,0,0-.37-2.47,4.84,4.84,0,0,0-1-1.75,4.2,4.2,0,0,0-1.58-1,5.54,5.54,0,0,0-1.94-.34A15.33,15.33,0,0,0,822,663a15.7,15.7,0,0,1,.34,3.36v19.77h-4.09V666.74a6.09,6.09,0,0,0-1.28-4.27,4.35,4.35,0,0,0-3.33-1.37,12.26,12.26,0,0,0-3.88.74,19,19,0,0,0-4,1.85v22.46h-4.09V661.46q-0.05-1.79-.23-3.26h3.8Z" transform="translate(-150.5 -402.21)"/></svg>