<svg id="www.jt314.com" xmlns="http://www.w3.org/2000/svg" viewBox="0 0 747.34 314"><defs><style>.cls-1{fill:#fff;}</style></defs><title>yin_logo</title><path class="cls-1" d="M299.89-113.12h4.77l6.1,18.38,6.15-18.38h2.85l6.56,18.32,5.86-18.32H337l-9.12,23.69h-3.07l-6.34-18.67-6.09,18.67h-3.11Z" transform="translate(30 393.48)"/><path class="cls-1" d="M341.29-113.12h4.77l6.12,18.38,6.15-18.38h2.86l6.57,18.32,5.86-18.32h4.77l-9.12,23.69h-3.11l-6.4-18.67-6.09,18.67h-3.12Z" transform="translate(30 393.48)"/><path class="cls-1" d="M382.69-113.12h4.77l6.12,18.38,6.18-18.38h2.86l6.51,18.32L415-113.12h4.77l-9.12,23.69h-3.11l-6.34-18.67L395.1-89.43H392Z" transform="translate(30 393.48)"/><path class="cls-1" d="M426.08-91.49A2.4,2.4,0,0,1,427-93.3a3.54,3.54,0,0,1,2.44-.82,3.58,3.58,0,0,1,2.43.81,2.23,2.23,0,0,1,.53,3.11,2.23,2.23,0,0,1-.53.53,3.58,3.58,0,0,1-2.43.81,3.66,3.66,0,0,1-2.41-.79A2.34,2.34,0,0,1,426.08-91.49Z" transform="translate(30 393.48)"/><path class="cls-1" d="M446.69-86.73a6.19,6.19,0,0,1-2.61,5.38,11.83,11.83,0,0,1-7,1.85h-2l0.36-3.07a4.32,4.32,0,0,0,.6,0h0.69a7.27,7.27,0,0,0,3.8-1,4,4,0,0,0,1.73-3.73v-25.8h4.43v26.39Zm-4.83-34a2,2,0,0,1,.73-1.46,2.75,2.75,0,0,1,1.94-.67,2.66,2.66,0,0,1,1.89.67,2,2,0,0,1,.72,1.46,1.84,1.84,0,0,1-.79,1.49,2.88,2.88,0,0,1-1.82.61,3,3,0,0,1-1.87-.61,1.83,1.83,0,0,1-.79-1.56v0.07Z" transform="translate(30 393.48)"/><path class="cls-1" d="M455-113.12h4.38v-6h4.4v6h7.38l-0.48,3h-6.9v13.69a5.61,5.61,0,0,0,.86,3.27,3,3,0,0,0,2.68,1.23,16.59,16.59,0,0,0,2.47-.23q1.49-.23,2-0.34l0.34,3q-0.56.09-2.37,0.27t-2.85.19a9.57,9.57,0,0,1-5.54-1.38q-2-1.38-2-5.11v-14.59H455v-3h0Z" transform="translate(30 393.48)"/><path class="cls-1" d="M487.94-109.66h0.73a24.14,24.14,0,0,0,4.76-.43,12,12,0,0,0,3.61-1.28,6.33,6.33,0,0,0,2.29-2.15,5.6,5.6,0,0,0,.8-3,4.22,4.22,0,0,0-.53-2.09,4.69,4.69,0,0,0-1.61-1.65,8.59,8.59,0,0,0-2.69-1.06,16.79,16.79,0,0,0-3.75-.37,13.91,13.91,0,0,0-2.5.23,21.57,21.57,0,0,0-2.39.57,16.24,16.24,0,0,0-2,.76,9.37,9.37,0,0,0-1.45.79l-2.27-2.57q0.81-.44,1.94-0.93a20.58,20.58,0,0,1,2.51-.9,26.45,26.45,0,0,1,3-.68,20.87,20.87,0,0,1,3.48-.27,25.7,25.7,0,0,1,5,.47,15.09,15.09,0,0,1,4.21,1.45,8.38,8.38,0,0,1,2.9,2.48,6,6,0,0,1,1.08,3.57,6.38,6.38,0,0,1-.73,3.08,7.73,7.73,0,0,1-1.92,2.32,10.88,10.88,0,0,1-2.71,1.61,15.67,15.67,0,0,1-3.09.94,21.58,21.58,0,0,1,4.2.89,11,11,0,0,1,3.34,1.72,7.56,7.56,0,0,1,2.2,2.72,8.9,8.9,0,0,1,.79,3.9,9.15,9.15,0,0,1-1.22,4.83,9.5,9.5,0,0,1-3.45,3.31,17.22,17.22,0,0,1-5.36,1.91,36.19,36.19,0,0,1-7,.61,25,25,0,0,1-2.82-.17,27.1,27.1,0,0,1-2.79-.46,20.62,20.62,0,0,1-2.54-.72,11.5,11.5,0,0,1-2.06-1l2.19-3a21.76,21.76,0,0,0,4.15,1.71,15,15,0,0,0,4.15.57q5.92,0,8.81-1.86a6.4,6.4,0,0,0,2.89-5.79,7,7,0,0,0-.77-3.41,6.08,6.08,0,0,0-2.27-2.31,11.22,11.22,0,0,0-3.68-1.32,26.62,26.62,0,0,0-5-.42H488v-2.6Z" transform="translate(30 393.48)"/><path class="cls-1" d="M527.93-92.44V-120l-8.28,3.4v-3.58l9.11-3.65h3.93v31.37h7.38v3H520v-3h8Z" transform="translate(30 393.48)"/><path class="cls-1" d="M571.38-99h-19.3v-2.19l20-22.57h4.1v21.58h4.43V-99h-4.43v9.61h-4.74V-99h-0.06Zm-14.45-3.16h14.45v-16.27Z" transform="translate(30 393.48)"/><path class="cls-1" d="M588.43-91.49a2.4,2.4,0,0,1,.93-1.81,3.54,3.54,0,0,1,2.44-.82,3.58,3.58,0,0,1,2.43.81,2.23,2.23,0,0,1,.53,3.11,2.23,2.23,0,0,1-.53.53,3.58,3.58,0,0,1-2.43.81,3.66,3.66,0,0,1-2.41-.79A2.34,2.34,0,0,1,588.43-91.49Z" transform="translate(30 393.48)"/><path class="cls-1" d="M628.37-93.34a11.64,11.64,0,0,1-4.48,3.1,18,18,0,0,1-6.83,1.15q-6.29,0-10-3.43a11.5,11.5,0,0,1-3.72-8.85,11.29,11.29,0,0,1,3.75-8.7q3.75-3.43,10.09-3.43a19,19,0,0,1,6.1.83,12.28,12.28,0,0,1,4.14,2.33l-2.89,2a10.87,10.87,0,0,0-3.34-2,11.52,11.52,0,0,0-4-.61,8.86,8.86,0,0,0-6.79,2.6,9.31,9.31,0,0,0-2.44,6.64,10.37,10.37,0,0,0,2.6,7.11,8.42,8.42,0,0,0,6.61,2.94A9.42,9.42,0,0,0,625.48-95Z" transform="translate(30 393.48)"/><path class="cls-1" d="M651.25-89q-7.13,0-10.78-3.44a12,12,0,0,1-3.65-9.13,10.8,10.8,0,0,1,3.9-8.49q3.9-3.4,10.38-3.4T661.33-110a11.82,11.82,0,0,1,3.61,8.8,11.35,11.35,0,0,1-3.79,8.57A13.87,13.87,0,0,1,651.25-89Zm-0.2-2.79a9.12,9.12,0,0,0,4.07-.86,10.41,10.41,0,0,0,3.47-3.09,9.71,9.71,0,0,0,1.73-6.08A9.14,9.14,0,0,0,658-108q-2.37-2.75-6.95-2.75a9.24,9.24,0,0,0-7.06,2.63,9.63,9.63,0,0,0-2.48,6.89,8.27,8.27,0,0,0,1.78,5.66,11.32,11.32,0,0,0,3.59,2.86,9.9,9.9,0,0,0,4.22.88v0Z" transform="translate(30 393.48)"/><path class="cls-1" d="M679.55-113.12a14.58,14.58,0,0,1,.34,2.28,27.54,27.54,0,0,1,4.42-1.88,17.31,17.31,0,0,1,5.4-.78,11.69,11.69,0,0,1,3.63.57,7,7,0,0,1,3.1,2.08,24.62,24.62,0,0,1,10.61-2.65,11.18,11.18,0,0,1,3.72.56,7.19,7.19,0,0,1,2.61,1.54,6.19,6.19,0,0,1,1.53,2.3,7.91,7.91,0,0,1,.5,2.84v16.83H711v-16.5a5,5,0,0,0-.41-2.09,4.05,4.05,0,0,0-1.14-1.48,4.81,4.81,0,0,0-1.71-.88,7.51,7.51,0,0,0-2.1-.29,20.36,20.36,0,0,0-7.94,1.62,10.49,10.49,0,0,1,.37,2.85v16.76h-4.43v-16.44a4.45,4.45,0,0,0-1.39-3.62,5.43,5.43,0,0,0-3.61-1.16,16.62,16.62,0,0,0-4.21.63,23.59,23.59,0,0,0-4.29,1.57v19h-4.43v-20.9a23.46,23.46,0,0,0-.25-2.76h4.11Z" transform="translate(30 393.48)"/><path class="cls-1" d="M421.65-172h61.86v9.32q0,17.61-19.93,17.61H349q-12.67-1-17.85-10.77-4.36,9.94-16.61,10.36l-14.77-.21V-303.38q0-5-5-5h-7.27v-26.9h24.08q19.72,0.21,19.72,23.62v50.13q0,9.74-19.1,14.92,19.1,2.69,19.1,11.81v47.65q2.07,10.77,13.08,15.12h43.8q0-11.39-13.91-11.39H343V-205.6h45.25v-3.31q0-7.25-13.91-7.25H346.08v-20.51h42.14v-3.53q0-7-13.91-7H346.08v-20.55h42.14v-3.94q0-7.46-16-7.46H339.65v-22.16h48.58v-3.94q0-7.46-15.15-7.46h-27v-20.5h42.14v-7.46h33.42v7.46h28.23q24.29,0,24.08,23.82v8.08h9.55v22.17H474v12.22l0.42,19.68H421.65v10.56h52.94v20.51H421.65v10.57h56.26v22.17H421.65V-172ZM434.52-312.7H421.65v11.39h22v-3.94Q443.65-312.7,434.52-312.7Zm-2.08,33.56H421.65v11.39h22v-3.11Q443.65-279.14,432.44-279.14Z" transform="translate(30 393.48)"/><path class="cls-1" d="M574.1-172.87H717.34v11.6q0,16.57-19.31,16.16H583.23a24.65,24.65,0,0,1-18.06-12.22q0,12.22-16.61,12.22H532.37V-265.05h-11v-27.14H545q19.93,0,20.14,22.17v85.56Q566.21-175.36,574.1-172.87ZM532.58-308.8a18.17,18.17,0,0,0,13.29,5.59A18.75,18.75,0,0,0,564.62-322a18.75,18.75,0,0,0-18.75-18.75,18.17,18.17,0,0,0-13.29,5.59,17.87,17.87,0,0,0-5.61,13A18.1,18.1,0,0,0,532.58-308.8ZM659-200.8q0.2,19.68-16.82,19.68l-17-.21v-39.19q0-14.5-18.68-14.5H571.62V-260.7h53.56v-2.7q0-10.77-19.51-10.77H578.06v-11H566.23l20.14-47.23q4.36-7.66,16.61-7.66h78.68q12.87-.2,16,10.36l18.89,44.54h-8.93v11H659v13.46h55.84V-235H659v34.21h0Zm-44.84-25.27-7.89,43.71H574.51l8.72-43.71h30.93Zm0.6-86.63-5.6,13a0.6,0.6,0,0,0-.21.41h65.39l-6-13.47H614.76Zm87.6,94.26,10.79,36H682.63L668.1-226.15h22.42q8.13,0,11.87,7.71h0Z" transform="translate(30 393.48)"/><path class="cls-1" d="M154.89-85.7A155.35,155.35,0,0,0,280.6-238.18a155.3,155.3,0,0,0-155.3-155.3A155.3,155.3,0,0,0-30-238.18,155.35,155.35,0,0,0,97.19-85.42V-251.09h57.7V-85.7ZM10.42-238a114.55,114.55,0,0,1,12.93-53v40h33.1V-146A114.87,114.87,0,0,1,10.42-238Zm13.35-53.83a115,115,0,0,1,101.7-61.22,115,115,0,0,1,101.7,61.22H23.77ZM195.94-147.08v-104h31.63v-40a114.55,114.55,0,0,1,13,53.08A114.84,114.84,0,0,1,195.94-147.08Z" transform="translate(30 393.48)"/></svg>